<mxfile host="Electron" modified="2024-04-05T20:01:09.094Z" agent="Mozilla/5.0 (Windows NT 10.0; Win64; x64) AppleWebKit/537.36 (KHTML, like Gecko) draw.io/24.1.0 Chrome/120.0.6099.109 Electron/28.1.0 Safari/537.36" etag="w9s8Fz-Gxe573RmP_-0R" version="24.1.0" type="device">
  <diagram name="Use-case" id="OlGgIxzh3NcMVx75n0-y">
    <mxGraphModel dx="2241" dy="1272" grid="1" gridSize="10" guides="1" tooltips="1" connect="1" arrows="1" fold="1" page="1" pageScale="1" pageWidth="850" pageHeight="1100" math="0" shadow="0">
      <root>
        <mxCell id="0" />
        <mxCell id="1" parent="0" />
        <mxCell id="7Tl3KbuI95lfWcl269wo-1" value="" style="rounded=0;whiteSpace=wrap;html=1;" vertex="1" parent="1">
          <mxGeometry x="-170" y="10" width="570" height="1210" as="geometry" />
        </mxCell>
        <mxCell id="7Tl3KbuI95lfWcl269wo-2" value="AirFlights" style="text;html=1;align=center;verticalAlign=middle;resizable=0;points=[];autosize=1;strokeColor=none;fillColor=none;" vertex="1" parent="1">
          <mxGeometry x="80" y="30" width="70" height="30" as="geometry" />
        </mxCell>
        <mxCell id="7Tl3KbuI95lfWcl269wo-3" value="Registration" style="ellipse;whiteSpace=wrap;html=1;" vertex="1" parent="1">
          <mxGeometry x="55" y="90" width="120" height="80" as="geometry" />
        </mxCell>
        <mxCell id="7Tl3KbuI95lfWcl269wo-4" value="Login" style="ellipse;whiteSpace=wrap;html=1;" vertex="1" parent="1">
          <mxGeometry x="55" y="200" width="120" height="80" as="geometry" />
        </mxCell>
        <mxCell id="7Tl3KbuI95lfWcl269wo-5" value="View air flights" style="ellipse;whiteSpace=wrap;html=1;" vertex="1" parent="1">
          <mxGeometry x="55" y="310" width="120" height="80" as="geometry" />
        </mxCell>
        <mxCell id="7Tl3KbuI95lfWcl269wo-7" value="Search air flight" style="ellipse;whiteSpace=wrap;html=1;" vertex="1" parent="1">
          <mxGeometry x="55" y="420" width="120" height="80" as="geometry" />
        </mxCell>
        <mxCell id="7Tl3KbuI95lfWcl269wo-8" value="Select air flight" style="ellipse;whiteSpace=wrap;html=1;" vertex="1" parent="1">
          <mxGeometry x="55" y="530" width="120" height="80" as="geometry" />
        </mxCell>
        <mxCell id="7Tl3KbuI95lfWcl269wo-9" value="Manage air flights" style="ellipse;whiteSpace=wrap;html=1;" vertex="1" parent="1">
          <mxGeometry x="55" y="640" width="120" height="80" as="geometry" />
        </mxCell>
        <mxCell id="7Tl3KbuI95lfWcl269wo-10" value="Reservation" style="ellipse;whiteSpace=wrap;html=1;" vertex="1" parent="1">
          <mxGeometry x="55" y="750" width="120" height="80" as="geometry" />
        </mxCell>
        <mxCell id="7Tl3KbuI95lfWcl269wo-11" value="Manage User" style="ellipse;whiteSpace=wrap;html=1;" vertex="1" parent="1">
          <mxGeometry x="55" y="860" width="120" height="80" as="geometry" />
        </mxCell>
        <mxCell id="7Tl3KbuI95lfWcl269wo-12" value="View reservations" style="ellipse;whiteSpace=wrap;html=1;" vertex="1" parent="1">
          <mxGeometry x="55" y="970" width="120" height="80" as="geometry" />
        </mxCell>
        <mxCell id="7Tl3KbuI95lfWcl269wo-13" value="Modify Profile" style="ellipse;whiteSpace=wrap;html=1;" vertex="1" parent="1">
          <mxGeometry x="55" y="1080" width="120" height="80" as="geometry" />
        </mxCell>
        <mxCell id="7Tl3KbuI95lfWcl269wo-19" style="edgeStyle=orthogonalEdgeStyle;rounded=0;orthogonalLoop=1;jettySize=auto;html=1;entryX=0;entryY=0.5;entryDx=0;entryDy=0;" edge="1" parent="1" source="7Tl3KbuI95lfWcl269wo-14" target="7Tl3KbuI95lfWcl269wo-3">
          <mxGeometry relative="1" as="geometry" />
        </mxCell>
        <mxCell id="7Tl3KbuI95lfWcl269wo-20" style="edgeStyle=orthogonalEdgeStyle;rounded=0;orthogonalLoop=1;jettySize=auto;html=1;entryX=0;entryY=0.5;entryDx=0;entryDy=0;" edge="1" parent="1" source="7Tl3KbuI95lfWcl269wo-14" target="7Tl3KbuI95lfWcl269wo-4">
          <mxGeometry relative="1" as="geometry" />
        </mxCell>
        <mxCell id="7Tl3KbuI95lfWcl269wo-21" style="edgeStyle=orthogonalEdgeStyle;rounded=0;orthogonalLoop=1;jettySize=auto;html=1;entryX=0;entryY=0.5;entryDx=0;entryDy=0;" edge="1" parent="1" source="7Tl3KbuI95lfWcl269wo-14" target="7Tl3KbuI95lfWcl269wo-5">
          <mxGeometry relative="1" as="geometry" />
        </mxCell>
        <mxCell id="7Tl3KbuI95lfWcl269wo-22" style="edgeStyle=orthogonalEdgeStyle;rounded=0;orthogonalLoop=1;jettySize=auto;html=1;" edge="1" parent="1" source="7Tl3KbuI95lfWcl269wo-14" target="7Tl3KbuI95lfWcl269wo-7">
          <mxGeometry relative="1" as="geometry" />
        </mxCell>
        <mxCell id="7Tl3KbuI95lfWcl269wo-23" style="edgeStyle=orthogonalEdgeStyle;rounded=0;orthogonalLoop=1;jettySize=auto;html=1;" edge="1" parent="1" source="7Tl3KbuI95lfWcl269wo-14" target="7Tl3KbuI95lfWcl269wo-8">
          <mxGeometry relative="1" as="geometry" />
        </mxCell>
        <mxCell id="7Tl3KbuI95lfWcl269wo-24" style="edgeStyle=orthogonalEdgeStyle;rounded=0;orthogonalLoop=1;jettySize=auto;html=1;entryX=0;entryY=0.5;entryDx=0;entryDy=0;" edge="1" parent="1" source="7Tl3KbuI95lfWcl269wo-14" target="7Tl3KbuI95lfWcl269wo-10">
          <mxGeometry relative="1" as="geometry" />
        </mxCell>
        <mxCell id="7Tl3KbuI95lfWcl269wo-25" style="edgeStyle=orthogonalEdgeStyle;rounded=0;orthogonalLoop=1;jettySize=auto;html=1;entryX=0;entryY=0.5;entryDx=0;entryDy=0;" edge="1" parent="1" source="7Tl3KbuI95lfWcl269wo-14" target="7Tl3KbuI95lfWcl269wo-12">
          <mxGeometry relative="1" as="geometry" />
        </mxCell>
        <mxCell id="7Tl3KbuI95lfWcl269wo-26" style="edgeStyle=orthogonalEdgeStyle;rounded=0;orthogonalLoop=1;jettySize=auto;html=1;entryX=0;entryY=0.5;entryDx=0;entryDy=0;" edge="1" parent="1" source="7Tl3KbuI95lfWcl269wo-14" target="7Tl3KbuI95lfWcl269wo-13">
          <mxGeometry relative="1" as="geometry" />
        </mxCell>
        <mxCell id="7Tl3KbuI95lfWcl269wo-14" value="User" style="shape=umlActor;verticalLabelPosition=bottom;verticalAlign=top;html=1;outlineConnect=0;" vertex="1" parent="1">
          <mxGeometry x="-340" y="470" width="80" height="160" as="geometry" />
        </mxCell>
        <mxCell id="7Tl3KbuI95lfWcl269wo-27" style="edgeStyle=orthogonalEdgeStyle;rounded=0;orthogonalLoop=1;jettySize=auto;html=1;entryX=1;entryY=0.5;entryDx=0;entryDy=0;" edge="1" parent="1" source="7Tl3KbuI95lfWcl269wo-15" target="7Tl3KbuI95lfWcl269wo-4">
          <mxGeometry relative="1" as="geometry" />
        </mxCell>
        <mxCell id="7Tl3KbuI95lfWcl269wo-28" style="edgeStyle=orthogonalEdgeStyle;rounded=0;orthogonalLoop=1;jettySize=auto;html=1;" edge="1" parent="1" source="7Tl3KbuI95lfWcl269wo-15" target="7Tl3KbuI95lfWcl269wo-5">
          <mxGeometry relative="1" as="geometry" />
        </mxCell>
        <mxCell id="7Tl3KbuI95lfWcl269wo-29" style="edgeStyle=orthogonalEdgeStyle;rounded=0;orthogonalLoop=1;jettySize=auto;html=1;entryX=1;entryY=0.5;entryDx=0;entryDy=0;" edge="1" parent="1" source="7Tl3KbuI95lfWcl269wo-15" target="7Tl3KbuI95lfWcl269wo-7">
          <mxGeometry relative="1" as="geometry" />
        </mxCell>
        <mxCell id="7Tl3KbuI95lfWcl269wo-30" style="edgeStyle=orthogonalEdgeStyle;rounded=0;orthogonalLoop=1;jettySize=auto;html=1;entryX=1;entryY=0.5;entryDx=0;entryDy=0;" edge="1" parent="1" source="7Tl3KbuI95lfWcl269wo-15" target="7Tl3KbuI95lfWcl269wo-8">
          <mxGeometry relative="1" as="geometry" />
        </mxCell>
        <mxCell id="7Tl3KbuI95lfWcl269wo-31" style="edgeStyle=orthogonalEdgeStyle;rounded=0;orthogonalLoop=1;jettySize=auto;html=1;entryX=1;entryY=0.5;entryDx=0;entryDy=0;" edge="1" parent="1" source="7Tl3KbuI95lfWcl269wo-15" target="7Tl3KbuI95lfWcl269wo-9">
          <mxGeometry relative="1" as="geometry" />
        </mxCell>
        <mxCell id="7Tl3KbuI95lfWcl269wo-32" style="edgeStyle=orthogonalEdgeStyle;rounded=0;orthogonalLoop=1;jettySize=auto;html=1;entryX=1;entryY=0.5;entryDx=0;entryDy=0;" edge="1" parent="1" source="7Tl3KbuI95lfWcl269wo-15" target="7Tl3KbuI95lfWcl269wo-10">
          <mxGeometry relative="1" as="geometry" />
        </mxCell>
        <mxCell id="7Tl3KbuI95lfWcl269wo-33" style="edgeStyle=orthogonalEdgeStyle;rounded=0;orthogonalLoop=1;jettySize=auto;html=1;entryX=1;entryY=0.5;entryDx=0;entryDy=0;" edge="1" parent="1" source="7Tl3KbuI95lfWcl269wo-15" target="7Tl3KbuI95lfWcl269wo-12">
          <mxGeometry relative="1" as="geometry" />
        </mxCell>
        <mxCell id="7Tl3KbuI95lfWcl269wo-34" style="edgeStyle=orthogonalEdgeStyle;rounded=0;orthogonalLoop=1;jettySize=auto;html=1;entryX=1;entryY=0.5;entryDx=0;entryDy=0;" edge="1" parent="1" source="7Tl3KbuI95lfWcl269wo-15" target="7Tl3KbuI95lfWcl269wo-13">
          <mxGeometry relative="1" as="geometry" />
        </mxCell>
        <mxCell id="7Tl3KbuI95lfWcl269wo-15" value="Employee" style="shape=umlActor;verticalLabelPosition=bottom;verticalAlign=top;html=1;outlineConnect=0;" vertex="1" parent="1">
          <mxGeometry x="510" y="240" width="70" height="150" as="geometry" />
        </mxCell>
        <mxCell id="7Tl3KbuI95lfWcl269wo-35" style="edgeStyle=orthogonalEdgeStyle;rounded=0;orthogonalLoop=1;jettySize=auto;html=1;entryX=0.945;entryY=0.317;entryDx=0;entryDy=0;entryPerimeter=0;" edge="1" parent="1" source="7Tl3KbuI95lfWcl269wo-16" target="7Tl3KbuI95lfWcl269wo-13">
          <mxGeometry relative="1" as="geometry">
            <Array as="points">
              <mxPoint x="370" y="710" />
              <mxPoint x="370" y="1105" />
            </Array>
          </mxGeometry>
        </mxCell>
        <mxCell id="7Tl3KbuI95lfWcl269wo-37" style="edgeStyle=orthogonalEdgeStyle;rounded=0;orthogonalLoop=1;jettySize=auto;html=1;" edge="1" parent="1" source="7Tl3KbuI95lfWcl269wo-16">
          <mxGeometry relative="1" as="geometry">
            <mxPoint x="173" y="900" as="targetPoint" />
            <Array as="points">
              <mxPoint x="370" y="710" />
              <mxPoint x="370" y="900" />
              <mxPoint x="173" y="900" />
            </Array>
          </mxGeometry>
        </mxCell>
        <mxCell id="7Tl3KbuI95lfWcl269wo-38" style="edgeStyle=orthogonalEdgeStyle;rounded=0;orthogonalLoop=1;jettySize=auto;html=1;entryX=1.003;entryY=0.366;entryDx=0;entryDy=0;entryPerimeter=0;" edge="1" parent="1" source="7Tl3KbuI95lfWcl269wo-16" target="7Tl3KbuI95lfWcl269wo-10">
          <mxGeometry relative="1" as="geometry">
            <Array as="points">
              <mxPoint x="370" y="710" />
              <mxPoint x="370" y="779" />
            </Array>
          </mxGeometry>
        </mxCell>
        <mxCell id="7Tl3KbuI95lfWcl269wo-39" style="edgeStyle=orthogonalEdgeStyle;rounded=0;orthogonalLoop=1;jettySize=auto;html=1;entryX=1.01;entryY=0.36;entryDx=0;entryDy=0;entryPerimeter=0;" edge="1" parent="1" source="7Tl3KbuI95lfWcl269wo-16" target="7Tl3KbuI95lfWcl269wo-9">
          <mxGeometry relative="1" as="geometry">
            <Array as="points">
              <mxPoint x="370" y="710" />
              <mxPoint x="370" y="669" />
            </Array>
          </mxGeometry>
        </mxCell>
        <mxCell id="7Tl3KbuI95lfWcl269wo-40" style="edgeStyle=orthogonalEdgeStyle;rounded=0;orthogonalLoop=1;jettySize=auto;html=1;entryX=1.017;entryY=0.333;entryDx=0;entryDy=0;entryPerimeter=0;" edge="1" parent="1" source="7Tl3KbuI95lfWcl269wo-16" target="7Tl3KbuI95lfWcl269wo-8">
          <mxGeometry relative="1" as="geometry">
            <Array as="points">
              <mxPoint x="370" y="710" />
              <mxPoint x="370" y="557" />
            </Array>
          </mxGeometry>
        </mxCell>
        <mxCell id="7Tl3KbuI95lfWcl269wo-41" style="edgeStyle=orthogonalEdgeStyle;rounded=0;orthogonalLoop=1;jettySize=auto;html=1;entryX=1.01;entryY=0.306;entryDx=0;entryDy=0;entryPerimeter=0;" edge="1" parent="1" source="7Tl3KbuI95lfWcl269wo-16" target="7Tl3KbuI95lfWcl269wo-7">
          <mxGeometry relative="1" as="geometry">
            <Array as="points">
              <mxPoint x="370" y="710" />
              <mxPoint x="370" y="444" />
              <mxPoint x="176" y="444" />
            </Array>
          </mxGeometry>
        </mxCell>
        <mxCell id="7Tl3KbuI95lfWcl269wo-42" style="edgeStyle=orthogonalEdgeStyle;rounded=0;orthogonalLoop=1;jettySize=auto;html=1;entryX=0.966;entryY=0.333;entryDx=0;entryDy=0;entryPerimeter=0;" edge="1" parent="1" source="7Tl3KbuI95lfWcl269wo-16" target="7Tl3KbuI95lfWcl269wo-5">
          <mxGeometry relative="1" as="geometry">
            <Array as="points">
              <mxPoint x="370" y="710" />
              <mxPoint x="370" y="337" />
            </Array>
          </mxGeometry>
        </mxCell>
        <mxCell id="7Tl3KbuI95lfWcl269wo-43" style="edgeStyle=orthogonalEdgeStyle;rounded=0;orthogonalLoop=1;jettySize=auto;html=1;entryX=0.945;entryY=0.317;entryDx=0;entryDy=0;entryPerimeter=0;" edge="1" parent="1" source="7Tl3KbuI95lfWcl269wo-16" target="7Tl3KbuI95lfWcl269wo-4">
          <mxGeometry relative="1" as="geometry">
            <Array as="points">
              <mxPoint x="370" y="710" />
              <mxPoint x="370" y="225" />
            </Array>
          </mxGeometry>
        </mxCell>
        <mxCell id="7Tl3KbuI95lfWcl269wo-16" value="Admin" style="shape=umlActor;verticalLabelPosition=bottom;verticalAlign=top;html=1;outlineConnect=0;" vertex="1" parent="1">
          <mxGeometry x="500" y="640" width="80" height="140" as="geometry" />
        </mxCell>
        <mxCell id="7Tl3KbuI95lfWcl269wo-36" style="edgeStyle=orthogonalEdgeStyle;rounded=0;orthogonalLoop=1;jettySize=auto;html=1;entryX=0.995;entryY=0.301;entryDx=0;entryDy=0;entryPerimeter=0;" edge="1" parent="1" source="7Tl3KbuI95lfWcl269wo-16" target="7Tl3KbuI95lfWcl269wo-12">
          <mxGeometry relative="1" as="geometry">
            <Array as="points">
              <mxPoint x="370" y="710" />
              <mxPoint x="370" y="1000" />
              <mxPoint x="174" y="1000" />
            </Array>
          </mxGeometry>
        </mxCell>
      </root>
    </mxGraphModel>
  </diagram>
</mxfile>
